# AST/ASF file generated using VICON BodyLanguage
# -----------------------------------------------
:version 1.10
:name VICON
:units
  mass 1.0
  length 0.45
  angle deg
:documentation
   .ast/.asf automatically generated from VICON data using
   VICON BodyBuilder and BodyLanguage model FoxedUp or BRILLIANT.MOD
:root
   order TX TY TZ RX RY RZ
   axis XYZ
   position 0 0 0  
   orientation 0 0 0 
:bonedata
  begin
     id 1 
     name lhipjoint
     direction 0.692814 -0.645514 0.321437 
     length 2.38754 
     axis 0 0 0  XYZ
  end
  begin
     id 2 
     name lfemur
     direction 0.34202 -0.939693 0  
     length 6.41921  
     axis 0 0 20  XYZ
    dof rx ry rz
    limits (-160.0 20.0)
           (-70.0 70.0)
           (-60.0 70.0)
  end
  begin
     id 3 
     name ltibia
     direction 0.34202 -0.939693 0   
     length 6.98247   
     axis 0 0 20   XYZ
    dof rx
    limits (-10.0 170.0)
  end
  begin
     id 4 
     name lfoot
     direction 0.0947186 -0.260237 0.960888   
     length 1.83034   
     axis -90 7.62852e-016 20   XYZ
    dof rx rz
    limits (-45.0 90.0)
           (-70.0 20.0)
  end
  begin
     id 5 
     name ltoes
     direction 1.53538e-011 -4.21952e-011 1   
     length 0.920499   
     axis -90 7.62852e-016 20   XYZ
    dof rx
    limits (-90.0 20.0)
  end
  begin
     id 6 
     name rhipjoint
     direction -0.631686 -0.693949 0.345555   
     length 2.2209  
     axis 0 0 0  XYZ 
  end
  begin
     id 7 
     name rfemur
     direction -0.34202 -0.939693 0   
     length 6.49542   
     axis 0 0 -20   XYZ
    dof rx ry rz
    limits (-160.0 20.0)
           (-70.0 70.0)
           (-70.0 60.0)
  end
  begin
     id 8 
     name rtibia
     direction -0.34202 -0.939693 0   
     length 7.21712   
     axis 0 0 -20   XYZ
    dof rx
    limits (-10.0 170.0)
 end
 begin
     id 9 
     name rfoot
     direction -0.0825378 -0.226771 0.970444   
     length 1.89724  
     axis -90 -7.62852e-016 -20   XYZ
    dof rx rz
    limits (-45.0 90.0)
           (-20.0 70.0)
  end
  begin
     id 10 
     name rtoes
     direction -1.53515e-011 -4.22016e-011 1   
     length 0.955868   
     axis -90 -7.62852e-016 -20   XYZ
    dof rx
    limits (-90.0 20.0)
  end
  begin
     id 11 
     name lowerback
     direction -0.0104711 0.984802 -0.173368   
     length 1.84931   
     axis 0 0 0   XYZ
    dof rx ry rz
    limits (-20.0 45.0)
           (-30.0 30.0)
           (-30.0 30.0)
  end
  begin
     id 12 
     name upperback
     direction -0.00286433 0.999996 -0.000382853   
     length 1.85768   
     axis 0 0 0   XYZ
    dof rx ry rz
    limits (-20.0 45.0)
           (-30.0 30.0)
           (-30.0 30.0)
  end
  begin
     id 13 
     name thorax
     direction 0.00167534 0.996793 0.0800069   
     length 1.92   
     axis 0 0 0   XYZ
    dof rx ry rz
    limits (-20.0 45.0)
           (-30.0 30.0)
           (-30.0 30.0)
  end
  begin
     id 14 
     name lowerneck
     direction -0.0672491 0.995415 0.068018   
     length 1.58923   
     axis 0 0 0   XYZ
    dof rx ry rz
    limits (-20.0 45.0)
           (-30.0 30.0)
           (-30.0 30.0)
  end
  begin
     id 15 
     name upperneck
     direction 0.0958019 0.982476 -0.159884   
     length 1.60189   
     axis 0 0 0   XYZ
    dof rx ry rz
    limits (-20.0 45.0)
           (-30.0 30.0)
           (-30.0 30.0)
  end
  begin
     id 16
     name head
     direction 0.032989 0.997338 -0.0650226  
     length 1.61681  
     axis 0 0 0   XYZ
    dof rx ry rz
    limits (-20.0 45.0)
           (-30.0 30.0)
           (-30.0 30.0)
  end
  begin
     id 17 
     name lclavicle
     direction 0.954279 0.298875 -0.00496069  
     length 2.99449  
     axis 0 0 0   XYZ
    dof ry rz
    limits (-20.0 10.0)
           (0.0 20.0)
  end
  begin
     id 18 
     name lhumerus
     direction 1 -4.48985e-011 -4.2057e-027   
     length 4.79185   
     axis 180 -30 -90   XYZ
    dof rx ry rz
    limits (-60.0 90.0)
           (-90.0 90.0)
           (-90.0 90.0)
  end
  begin
     id 19
     name lradius
     direction 1 -4.48945e-011 1.15441e-028   
     length 2.65553   
     axis 180 -30 -90   XYZ
    dof rx
    limits (-10.0 170.0)
  end
  begin
     id 20
     name lwrist
     direction 1 -4.4899e-011 4.8894e-028   
     length 1.32777   
     axis -2.56392e-016 90 90   XYZ
    dof ry
    limits (-180.0 0.0)
 end
  begin
     id 21 
     name lhand
     direction 1 -4.48908e-011 9.7788e-028   
     length 0.743904   
     axis -6.23971e-016 90 90   XYZ
    dof rx rz
    limits (-90.0 90.0)
           (-45.0 45.0)
  end
  begin
     id 22 
     name lfingers
     direction 1 -4.49068e-011 1.95576e-027   
     length 0.599754   
     axis -1.24794e-015 90 90   XYZ
    dof rx
    limits (0.0 90.0)
  end
  begin
     id 23
     name lthumb
     direction 0.707107 -6.34883e-011 0.707107   
     length 0.861131   
     axis -90 45 2.85299e-015   XYZ
    dof rx rz
    limits (-45.0 45.0)
           (-45.0 45.0)
  end
  begin
     id 24 
     name rclavicle
     direction -0.957921 0.286916 0.00811568   
     length 3.06817  
     axis 0 0 0   XYZ 
    dof ry rz
    limits (-10.0 20.0)
           (-20.0 0.0)
  end
  begin
     id 25 
     name rhumerus
     direction -1 -4.48971e-011 -3.07942e-027  
     length 4.77254   
     axis 180 30 90   XYZ
    dof rx ry rz
    limits (-90.0 60.0)
           (-90.0 90.0)
           (-90.0 90.0)
  end
  begin
     id 26 
     name rradius
     direction -1 -4.48957e-011 -9.6815e-028   
     length 2.75995   
     axis 180 30 90   XYZ
    dof rx
    limits (-10.0 170.0)
  end
  begin
     id 27 
     name rwrist
     direction -1 -4.48979e-011 4.8894e-028   
     length 1.37997   
     axis -2.56392e-016 -90 -90   XYZ
    dof ry
    limits (-180.0 0.0)
  end
  begin
     id 28
     name rhand
     direction -1 -4.48906e-011 9.7788e-028   
     length 0.701619   
     axis -6.23971e-016 -90 -90   XYZ
    dof rx rz
    limits (-90.0 90.0)
           (-45.0 45.0)
  end
  begin
     id 29
     name rfingers
     direction -1 -4.49018e-011 1.95576e-027   
     length 0.565663   
     axis -1.24794e-015 -90 -90   XYZ
    dof rx
    limits (0.0 90.0)
  end
  begin
     id 30
     name rthumb
     direction -0.707107 -6.34881e-011 0.707107   
     length 0.812183   
     axis -90 -45 -2.85299e-015   XYZ
    dof rx rz
    limits (-45.0 45.0)
           (-45.0 45.0)
  end
:hierarchy
  begin
    root lhipjoint rhipjoint lowerback
    lhipjoint lfemur
    lfemur ltibia
    ltibia lfoot
    lfoot ltoes
    rhipjoint rfemur
    rfemur rtibia
    rtibia rfoot
    rfoot rtoes
    lowerback upperback
    upperback thorax
    thorax lowerneck lclavicle rclavicle
    lowerneck upperneck
    upperneck head
    lclavicle lhumerus
    lhumerus lradius
    lradius lwrist
    lwrist lhand lthumb
    lhand lfingers
    rclavicle rhumerus
    rhumerus rradius
    rradius rwrist
    rwrist rhand rthumb
    rhand rfingers
  end

#!OML:ASF F:\VICON\USERDATA\INSTALL\rory3\rory3.ASF
:FULLY-SPECIFIED
:DEGREES
1346
root 0.11555 15.367 -2.23298 -0.371496 13.7212 -8.43281
lowerback 28.3427 2.5716 -10.8843
upperback 13.2187 0.404131 -10.3568
thorax -0.517286 0.200719 -5.48274
lowerneck -4.40639 -5.30361 -18.3734
upperneck 25.7995 -5.43197 3.83399
head 9.61951 -3.82246 3.88381
rclavicle -2.8625e-014 5.08889e-014
rhumerus 94.2123 37.7334 -347.266
rradius 33.9508
rwrist 312.749
rhand -17.1717 -12.3392
rfingers 7.12502
rthumb 9.06968 -42.1242
lclavicle -2.8625e-014 5.08889e-014
lhumerus 48.7226 24.6504 143.361
lradius 14.9094
lwrist 39.7417
lhand -8.88362 36.9634
lfingers 7.12502
lthumb 17.0585 66.2344
rfemur -22.1864 -2.2702 24.2568
rtibia 40.4074
rfoot -14.1717 -13.7182
rtoes -13.2158
lfemur -31.0782 -12.4326 -5.81113
ltibia 43.8994
lfoot -10.5334 -4.00127
ltoes -15.6961
1347
root 0.108134 15.3704 -2.20767 -0.236233 14.4812 -8.50384
lowerback 28.2343 2.74338 -10.9159
upperback 13.2815 0.662846 -10.2368
thorax -0.387345 0.325415 -5.3976
lowerneck -4.26997 -5.37068 -18.5461
upperneck 25.429 -5.58594 4.07494
head 9.4909 -3.86842 3.9798
rclavicle 3.18055e-014 4.77083e-014
rhumerus 93.9353 37.9429 -348.335
rradius 33.7441
rwrist 313.63
rhand -16.988 -12.4458
rfingers 7.12502
rthumb 9.24689 -42.2231
lclavicle 3.18055e-014 4.77083e-014
lhumerus 49.1468 25.0076 143.736
lradius 14.8705
lwrist 39.8306
lhand -8.73613 36.408
lfingers 7.12502
lthumb 17.2004 65.6668
rfemur -22.2464 -2.82671 24.3501
rtibia 40.4705
rfoot -14.3126 -13.9319
rtoes -13.4723
lfemur -31.437 -12.8152 -5.68567
ltibia 43.9057
lfoot -10.5119 -4.29013
ltoes -15.6205
1348
root 0.102836 15.3732 -2.18053 -0.141099 15.2107 -8.58215
lowerback 28.1925 2.90791 -10.826
upperback 13.3452 0.926666 -10.1988
thorax -0.286889 0.46307 -5.47869
lowerneck -4.30629 -5.4267 -18.4871
upperneck 25.2327 -5.70118 4.2454
head 9.44022 -3.88899 4.01641
rclavicle 2.54444e-014 -6.04305e-014
rhumerus 93.4587 38.2323 -349.745
rradius 33.401
rwrist 314.737
rhand -16.811 -11.9294
rfingers 7.12502
rthumb 9.41774 -41.699
lclavicle 2.54444e-014 -6.04305e-014
lhumerus 49.5603 25.2119 144.04
lradius 14.8279
lwrist 39.4726
lhand -9.10497 36.0907
lfingers 7.12502
lthumb 16.8454 65.38
rfemur -22.2614 -3.38873 24.435
rtibia 40.519
rfoot -14.5333 -14.0625
rtoes -13.391
lfemur -31.7408 -13.1835 -5.57331
ltibia 43.9342
lfoot -10.5136 -4.53522
ltoes -15.5088
1349
root 0.0956785 15.3731 -2.15433 -0.101825 15.9471 -8.74005
lowerback 28.2131 3.06028 -10.7027
upperback 13.4049 1.17215 -10.1243
thorax -0.22165 0.5923 -5.53354
lowerneck -4.46216 -5.49078 -18.4281
upperneck 25.2102 -5.77912 4.33249
head 9.46918 -3.90619 4.02651
rclavicle 2.8625e-014 -8.90555e-014
rhumerus 93.1155 38.4545 -351.003
rradius 33.027
rwrist 315.82
rhand -16.6914 -11.1421
rfingers 7.12502
rthumb 9.53307 -40.9064
lclavicle 2.8625e-014 -8.90555e-014
lhumerus 49.9043 25.2076 144.066
lradius 14.8302
lwrist 39.3735
lhand -9.70608 35.7922
lfingers 7.12502
lthumb 16.2667 65.1298
rfemur -22.2441 -3.91596 24.6085
rtibia 40.5656
rfoot -14.7847 -14.1617
rtoes -12.5482
lfemur -32.0451 -13.5667 -5.36476
ltibia 43.9822
lfoot -10.4705 -4.82139
ltoes -15.2652
1350
root 0.0880216 15.3712 -2.12937 -0.0708787 16.7195 -8.92905
lowerback 28.2608 3.00823 -10.8134
upperback 13.6233 1.13075 -9.91276
thorax 0.00454056 0.556697 -5.21696
lowerneck -5.51226 -5.52512 -19.2575
upperneck 25.3445 -5.56413 4.63966
head 9.73406 -3.84524 4.27377
rclavicle 9.85972e-014 5.725e-014
rhumerus 93.7646 37.9963 -351.441
rradius 32.7715
rwrist 316.761
rhand -16.4471 -11.0329
rfingers 7.12502
rthumb 9.76883 -40.7863
lclavicle 9.85972e-014 5.725e-014
lhumerus 51.5737 25.8683 145.426
lradius 14.8156
lwrist 38.5132
lhand -9.56527 35.5797
lfingers 7.12502
lthumb 16.4022 64.9062
rfemur -22.2389 -4.509 24.8153
rtibia 40.6087
rfoot -15.0857 -14.2102
rtoes -11.6597
lfemur -32.3977 -13.9388 -5.12645
ltibia 44.0572
lfoot -10.4288 -5.12923
ltoes -15.2436
1351
root 0.0815099 15.3726 -2.10271 0.0135991 17.4331 -9.04302
lowerback 28.2807 2.92483 -10.8793
upperback 13.808 1.05563 -9.82716
thorax 0.208789 0.51268 -5.0606
lowerneck -6.33757 -5.54415 -20.0393
upperneck 25.2813 -5.38346 5.00258
head 9.88632 -3.78473 4.53471
rclavicle 2.54444e-014 1.27222e-014
rhumerus 94.4776 37.5416 -351.899
rradius 32.553
rwrist 317.547
rhand -16.0501 -11.3518
rfingers 7.12502
rthumb 10.1518 -41.0869
lclavicle 2.54444e-014 1.27222e-014
lhumerus 53.081 26.3531 146.391
lradius 14.8781
lwrist 37.9423
lhand -9.38602 35.5458
lfingers 7.12502
lthumb 16.5748 64.8579
rfemur -22.2682 -5.08425 24.9569
rtibia 40.6437
rfoot -15.2527 -14.3058
rtoes -11.6409
lfemur -32.7629 -14.2857 -4.9611
ltibia 44.1471
lfoot -10.4211 -5.39651
ltoes -15.3093
1352
root 0.0783068 15.3731 -2.07743 0.104646 18.09 -9.18467
lowerback 28.3242 2.81334 -10.8096
upperback 13.954 0.964427 -9.77366
thorax 0.35535 0.469917 -5.01346
lowerneck -6.91636 -5.54818 -20.8212
upperneck 24.9639 -5.218 5.32503
head 9.89889 -3.72435 4.7806
rclavicle 9.54166e-015 -6.36111e-015
rhumerus 95.1148 37.1764 -352.397
rradius 32.408
rwrist 318.242
rhand -15.5565 -11.6315
rfingers 7.12502
rthumb 10.6279 -41.3427
lclavicle 9.54166e-015 -6.36111e-015
lhumerus 54.5455 26.7148 147.243
lradius 14.9172
lwrist 37.4654
lhand -9.63155 35.5624
lfingers 7.12502
lthumb 16.3384 64.8941
rfemur -22.3146 -5.64368 25.1166
rtibia 40.6779
rfoot -15.4488 -14.3559
rtoes -11.4637
lfemur -33.1351 -14.642 -4.75949
ltibia 44.2453
lfoot -10.3791 -5.65759
ltoes -14.8319
1353
root 0.0738815 15.3715 -2.05517 0.135324 18.7297 -9.36052
lowerback 28.3429 2.82451 -10.7363
upperback 13.9603 1.0101 -9.61408
thorax 0.348042 0.492845 -4.88424
lowerneck -7.10231 -5.51047 -21.3881
upperneck 24.8499 -5.07943 5.54569
head 9.90234 -3.67994 4.96307
rclavicle -2.8625e-014 -7.63333e-014
rhumerus 95.5912 37.2252 -352.812
rradius 32.2494
rwrist 318.788
rhand -15.1088 -11.8665
rfingers 7.12502
rthumb 11.0598 -41.5551
lclavicle -2.8625e-014 -7.63333e-014
lhumerus 55.2806 26.9515 147.442
lradius 14.9868
lwrist 37.4943
lhand -9.94377 35.513
lfingers 7.12502
lthumb 16.0378 64.8692
rfemur -22.3277 -6.16354 25.31
rtibia 40.7113
rfoot -15.6527 -14.3918
rtoes -11.3004
lfemur -33.4805 -14.9921 -4.53206
ltibia 44.3492
lfoot -10.2752 -5.91474
ltoes -14.2475
1354
root 0.0682436 15.3698 -2.02949 0.155713 19.3747 -9.50657
lowerback 28.3639 2.80902 -10.6936
upperback 13.9714 1.01498 -9.4825
thorax 0.346196 0.495338 -4.75891
lowerneck -7.6983 -5.4691 -22.0031
upperneck 25.0816 -4.85522 5.89847
head 10.0985 -3.60211 5.21519
rclavicle 1.59028e-014 6.04305e-014
rhumerus 96.0878 37.313 -353.431
rradius 31.9545
rwrist 319.533
rhand -14.7109 -11.7502
rfingers 7.12502
rthumb 11.4435 -41.4179
lclavicle 1.59028e-014 6.04305e-014
lhumerus 56.1114 27.2564 147.633
lradius 14.9158
lwrist 37.3729
lhand -9.83344 35.2396
lfingers 7.12502
lthumb 16.144 64.5873
rfemur -22.318 -6.66232 25.4838
rtibia 40.7435
rfoot -15.8765 -14.506
rtoes -11.2097
lfemur -33.7962 -15.3512 -4.33656
ltibia 44.4477
lfoot -10.2298 -6.13941
ltoes -14.1743
1355
root 0.0618777 15.368 -1.99903 0.207525 19.9825 -9.6803
lowerback 28.3215 2.73411 -10.6174
upperback 13.9488 0.956051 -9.3829
thorax 0.332377 0.468824 -4.66797
lowerneck -8.10371 -5.39409 -22.8329
upperneck 25.1663 -4.63225 6.42374
head 10.2135 -3.52292 5.56842
rclavicle 6.36111e-015 -2.03555e-013
rhumerus 96.606 37.5161 -354.249
rradius 31.685
rwrist 320.455
rhand -14.3019 -11.4491
rfingers 7.12502
rthumb 11.838 -41.0945
lclavicle 6.36111e-015 -2.03555e-013
lhumerus 57.1473 27.7553 147.967
lradius 14.8583
lwrist 37.0525
lhand -9.60471 35.0678
lfingers 7.12502
lthumb 16.3643 64.3974
rfemur -22.3435 -7.11395 25.7023
rtibia 40.7805
rfoot -16.0504 -14.6074
rtoes -10.8945
lfemur -34.1216 -15.6847 -4.08364
ltibia 44.5394
lfoot -10.2378 -6.35261
ltoes -14.2105
1356
root 0.0570997 15.3701 -1.96813 0.348699 20.5591 -9.78768
lowerback 28.1489 2.77632 -10.6756
upperback 13.9005 1.03098 -9.22269
thorax 0.350962 0.49753 -4.46587
lowerneck -8.05176 -5.35797 -23.5855
upperneck 25.0346 -4.57129 6.88136
head 10.1823 -3.51023 5.86515
rclavicle -4.77083e-014 5.40694e-014
rhumerus 96.9851 37.7973 -354.951
rradius 31.4642
rwrist 321.206
rhand -14.0823 -11.4005
rfingers 7.12502
rthumb 12.0497 -41.0336
lclavicle -4.77083e-014 5.40694e-014
lhumerus 58.1136 28.286 148.543
lradius 14.8072
lwrist 36.6143
lhand -9.69272 35.0553
lfingers 7.12502
lthumb 16.2795 64.3919
rfemur -22.43 -7.59252 25.862
rtibia 40.8226
rfoot -16.2842 -14.6304
rtoes -10.674
lfemur -34.4655 -15.9863 -3.88741
ltibia 44.6088
lfoot -10.2361 -6.56633
ltoes -14.1732
1357
root 0.0537862 15.3706 -1.94006 0.537071 21.1736 -9.82485
lowerback 27.9559 2.88292 -10.7934
upperback 13.8486 1.17765 -9.01437
thorax 0.374663 0.556729 -4.19559
lowerneck -7.94556 -5.34911 -24.1365
upperneck 24.8893 -4.53871 7.10883
head 10.1305 -3.51313 6.03923
rclavicle 5.40694e-014 -6.99722e-014
rhumerus 97.2609 38.0164 -355.473
rradius 31.2632
rwrist 321.804
rhand -13.8284 -11.5191
rfingers 7.12502
rthumb 12.2946 -41.1377
lclavicle 5.40694e-014 -6.99722e-014
lhumerus 58.6131 28.4702 148.542
lradius 14.7716
lwrist 36.692
lhand -9.92014 35.0445
lfingers 7.12502
lthumb 16.0605 64.3989
rfemur -22.5531 -8.18963 25.9392
rtibia 40.8654
rfoot -16.4498 -14.6471
rtoes -11.1843
lfemur -34.8453 -16.3405 -3.75525
ltibia 44.6822
lfoot -10.1789 -6.77607
ltoes -13.7163
1358
root 0.049353 15.3689 -1.91276 0.586743 21.7848 -9.92254
lowerback 27.966 2.97714 -10.8607
upperback 13.7849 1.28364 -8.81177
thorax 0.289616 0.601978 -3.9579
lowerneck -8.13053 -5.33204 -24.5113
upperneck 24.8917 -4.40737 7.17338
head 10.1622 -3.47524 6.13707
rclavicle 1.27222e-014 3.18055e-015
rhumerus 97.7508 38.1627 -355.765
rradius 31.0471
rwrist 322.124
rhand -13.7149 -11.6179
rfingers 7.12502
rthumb 12.404 -41.2299
lclavicle 1.27222e-014 3.18055e-015
lhumerus 59.4709 28.9539 149.154
lradius 14.6978
lwrist 36.1265
lhand -9.95036 34.8475
lfingers 7.12502
lthumb 16.0315 64.2042
rfemur -22.5642 -8.76473 26.0707
rtibia 40.9098
rfoot -16.6033 -14.7192
rtoes -11.2479
lfemur -35.1303 -16.7555 -3.57748
ltibia 44.7552
lfoot -10.1632 -6.91578
ltoes -13.3748
1359
root 0.0426036 15.3664 -1.88384 0.556947 22.3389 -10.1503
lowerback 27.9861 3.03874 -10.8226
upperback 13.7395 1.37241 -8.63887
thorax 0.220161 0.644338 -3.80833
lowerneck -8.3179 -5.35559 -24.8696
upperneck 24.8282 -4.35827 7.32324
head 10.1831 -3.46233 6.25264
rclavicle -4.45278e-014 1.59028e-014
rhumerus 98.1651 38.3698 -356.378
rradius 30.8244
rwrist 322.531
rhand -13.5447 -11.2707
rfingers 7.12502
rthumb 12.5681 -40.8726
lclavicle -4.45278e-014 1.59028e-014
lhumerus 60.4814 29.4789 149.856
lradius 14.7061
lwrist 35.4315
lhand -9.97416 34.8049
lfingers 7.12502
lthumb 16.0085 64.1635
rfemur -22.5427 -9.22006 26.3523
rtibia 40.9374
rfoot -16.7288 -14.8485
rtoes -11.3408
lfemur -35.378 -17.0496 -3.27817
ltibia 44.8357
lfoot -10.1633 -7.10705
ltoes -13.2157
